<?xml version="1.0" encoding="UTF-8"?>
<svg width="24px" height="24px" viewBox="0 0 24 24" version="1.1" xmlns="http://www.w3.org/2000/svg" xmlns:xlink="http://www.w3.org/1999/xlink">
    <!-- Generator: Sketch 51.3 (57544) - http://www.bohemiancoding.com/sketch -->
    <title>ico-s-export-blue</title>
    <desc>Created with Sketch.</desc>
    <defs></defs>
    <g id="ico-s-export-blue" stroke="none" stroke-width="1" fill="none" fill-rule="evenodd">
        <path d="M5,8.41421356 L5,20 L9,20 C9.55228475,20 10,20.4477153 10,21 C10,21.5522847 9.55228475,22 9,22 L5,22 C3.8954305,22 3,21.1045695 3,20 L3,8.20710678 C3,7.80928205 3.15803526,7.42775118 3.43933983,7.14644661 L8.14644661,2.43933983 C8.42775118,2.15803526 8.80928205,2 9.20710678,2 L16,2 C17.1045695,2 18,2.8954305 18,4 L18,10 C18,10.5522847 17.5522847,11 17,11 C16.4477153,11 16,10.5522847 16,10 L16,4 L9.41421356,4 L5,8.41421356 Z" id="Stroke-1" fill="#5CA0F6" fill-rule="nonzero"></path>
        <path d="M8,3 L10,3 L10,7 C10,8.1045695 9.1045695,9 8,9 L4,9 L4,7 L8,7 L8,3 Z" id="Path-30" fill="#5CA0F6" fill-rule="nonzero"></path>
        <path d="M11,18 C10.4477153,18 10,17.5522847 10,17 C10,16.4477153 10.4477153,16 11,16 L19,16 C19.5522847,16 20,16.4477153 20,17 C20,17.5522847 19.5522847,18 19,18 L11,18 Z" id="Stroke-1" fill="#5CA0F6" fill-rule="nonzero"></path>
        <path d="M17.2928932,14.7071068 C16.9023689,14.3165825 16.9023689,13.6834175 17.2928932,13.2928932 C17.6834175,12.9023689 18.3165825,12.9023689 18.7071068,13.2928932 L22.4142136,17 L18.7071068,20.7071068 C18.3165825,21.0976311 17.6834175,21.0976311 17.2928932,20.7071068 C16.9023689,20.3165825 16.9023689,19.6834175 17.2928932,19.2928932 L19.5857864,17 L17.2928932,14.7071068 Z" id="Stroke-4" fill="#5CA0F6" fill-rule="nonzero"></path>
    </g>
</svg>