<svg xmlns="http://www.w3.org/2000/svg" width="24.001" height="24" viewBox="0 0 24.001 24"><defs><style>.a{fill:#fff;}</style></defs><g transform="translate(-1.09 -0.332)"><path class="a" d="M16.636,220.636H.818a.818.818,0,1,1,0-1.636H16.636a.818.818,0,0,1,0,1.636Zm0,0" transform="translate(1.09 -207.302)"/><path class="a" d="M224.822,143.994a.819.819,0,0,1-.578-1.4l3.785-3.785-3.785-3.785a.819.819,0,0,1,1.158-1.158l4.364,4.364a.818.818,0,0,1,0,1.157l-4.364,4.364A.812.812,0,0,1,224.822,143.994Zm0,0" transform="translate(-211.459 -126.297)"/><path class="a" d="M47.7,24.332a11.938,11.938,0,0,1-11.169-7.61.818.818,0,1,1,1.523-.6,10.364,10.364,0,1,0,0-7.584.818.818,0,1,1-1.523-.6A12,12,0,1,1,47.7,24.332Zm0,0" transform="translate(-34.607)"/></g></svg>